<svg width="227" height="60" viewBox="0 0 227 60" fill="none" xmlns="http://www.w3.org/2000/svg">
<path d="M75.1955 29.6529C76.5273 28.938 77.4177 27.6294 77.4177 25.851C77.4177 23.1099 75.1955 21.3574 71.0478 21.3574H62.9512V38.6375H71.5408C75.9827 38.6375 78.3056 36.9108 78.3056 33.9478C78.3056 31.7023 77.046 30.2465 75.1955 29.6529ZM66.1593 23.8765H70.7019C72.9242 23.8765 74.1837 24.6663 74.1837 26.2717C74.1837 27.8513 72.9242 28.6411 70.7019 28.6411H66.1593V23.8765ZM71.3446 36.121H66.1619V31.1344H71.3446C73.763 31.1344 75.0716 31.8984 75.0716 33.6277C75.0716 35.3544 73.763 36.121 71.3446 36.121Z" fill="#0B0E18"/>
<path d="M92.2474 29.7781L87.1886 21.3613H83.7559L90.5439 32.5915V38.6389H93.7547V32.5424L100.517 21.3613H97.3578L92.2474 29.7781Z" fill="#0B0E18"/>
<path d="M105.084 24.0766H110.811V38.6389H114.019V24.0766H119.747V21.3613H105.084V24.0766Z" fill="#0B0E18"/>
<path d="M130.308 31.1848H138.652V28.5444H130.308V24.0508H139.713V21.3613H127.1V38.6389H140.059V35.9494H130.308V31.1848Z" fill="#0B0E18"/>
<path d="M153.902 21.3613L146.125 38.6414H149.434L151.137 34.6434H159.776L161.503 38.6414H164.861L157.061 21.3613H153.902ZM152.224 32.1217L155.458 24.567L158.715 32.1217H152.224Z" fill="#0B0E18"/>
<path d="M184.166 33.0612L174.636 21.3613H171.996V38.6389H175.181V26.939L184.708 38.6389H187.351V21.3613H184.166V33.0612Z" fill="#0B0E18"/>
<path d="M200.134 21.3613H196.926V38.6414H200.134V21.3613Z" fill="#0B0E18"/>
<path d="M218.227 21.3613H215.068L207.291 38.6414H210.6L212.303 34.6434H220.942L222.669 38.6414H226.027L218.227 21.3613ZM213.387 32.1217L216.621 24.567L219.879 32.1217H213.387Z" fill="#0B0E18"/>
<path d="M49.5521 20.647C49.1727 20.4276 48.7056 20.4276 48.3236 20.647L25.0842 34.0633L1.8448 20.647C1.46539 20.4276 0.998224 20.4276 0.616234 20.647C0.236826 20.8664 0.00195312 21.2716 0.00195312 21.7104V32.6746V45.0017C0.00195312 45.4405 0.236826 45.8457 0.616234 46.0651L24.4699 59.835C24.6609 59.946 24.8725 60.0002 25.0842 60.0002C25.2958 60.0002 25.5075 59.946 25.6985 59.835L49.5521 46.0651C49.9316 45.8457 50.1664 45.4405 50.1664 45.0017V32.6746V21.7104C50.1664 21.2716 49.9316 20.8664 49.5521 20.647ZM47.7119 44.292L25.0842 57.3521L2.45649 44.292V34.8014L24.4699 47.5079C24.8493 47.7273 25.3165 47.7273 25.6985 47.5079L47.7119 34.8014V44.292ZM47.7119 31.9649L25.0842 45.025L2.45649 31.9649V23.8371L24.4699 36.5436C24.8493 36.763 25.3165 36.763 25.6985 36.5436L47.7119 23.8371V31.9649Z" fill="#0B0E18"/>
<path d="M49.5528 13.9396L40.2844 8.58909C40.2844 8.58909 40.2844 8.58909 40.2818 8.58651L25.6965 0.164542C25.3171 -0.0548473 24.8474 -0.0548473 24.468 0.164542L9.88267 8.58651L0.614281 13.9396C0.234873 14.159 0 14.5642 0 15.003C0 15.4418 0.234873 15.847 0.614281 16.0664L24.468 29.8363C24.6589 29.9447 24.8706 30.0015 25.0822 30.0015C25.2939 30.0015 25.5055 29.9473 25.6965 29.8363L49.5502 16.0664C49.9296 15.847 50.1645 15.4418 50.1645 15.003C50.167 14.5642 49.9322 14.159 49.5528 13.9396ZM25.0848 2.64494L37.213 9.6499L25.0848 16.6497L12.9567 9.6499L25.0848 2.64494ZM25.0848 27.3533L3.68567 15.003L10.4995 11.0669L24.4705 19.1275C24.6615 19.2385 24.8732 19.2927 25.0848 19.2927C25.2965 19.2927 25.5081 19.2385 25.6991 19.1275L39.6701 11.0669L46.4839 15.003L25.0848 27.3533Z" fill="#0B0E18"/>
</svg>
