<svg width="227" height="41" viewBox="0 0 227 41" fill="none" xmlns="http://www.w3.org/2000/svg">
<path fill-rule="evenodd" clip-rule="evenodd" d="M9.92193 28.636H8.9362C8.51419 28.6335 8.1094 28.4668 7.80604 28.1707C7.50268 27.8746 7.32416 27.4719 7.30762 27.0462C7.30762 26.6103 7.47919 26.192 7.78462 25.8838C8.09004 25.5755 8.50428 25.4023 8.9362 25.4023H10.5648C10.9958 25.4052 11.4084 25.5793 11.7133 25.887C12.018 26.1946 12.1905 26.6111 12.1933 27.0462C12.1905 27.4813 12.018 27.8978 11.7133 28.2054C11.4084 28.5131 10.9958 28.6872 10.5648 28.6901L9.92193 28.636Z" fill="#0B0E18"/>
<path fill-rule="evenodd" clip-rule="evenodd" d="M6.82563 39.0302H1.62915C1.19722 39.0302 0.782985 38.8569 0.477566 38.5487C0.172147 38.2404 0.000564051 37.8223 0.000564051 37.3863C-0.00516027 37.1668 0.0327347 36.9484 0.112012 36.7439C0.19129 36.5395 0.310342 36.3531 0.462145 36.1958C0.613947 36.0386 0.795421 35.9137 0.995857 35.8283C1.19629 35.743 1.41163 35.6991 1.62915 35.6992H6.82563C7.25669 35.702 7.6693 35.8762 7.97411 36.1838C8.27892 36.4915 8.4514 36.908 8.45421 37.3431C8.4514 37.7782 8.27892 38.1946 7.97411 38.5023C7.6693 38.81 7.25669 38.9841 6.82563 38.9869V39.0302Z" fill="#0B0E18"/>
<path fill-rule="evenodd" clip-rule="evenodd" d="M62.433 39.03H63.3009C66.4651 38.9351 69.4682 37.5998 71.6731 35.3072C73.878 33.0145 75.1113 29.945 75.1113 26.7497C75.1113 23.5545 73.878 20.4849 71.6731 18.1923C69.4682 15.8996 66.4651 14.5642 63.3009 14.4695H62.433C62.4246 10.7714 61.0169 7.21627 58.4979 4.53105C55.9788 1.84581 52.5386 0.233361 48.8808 0.0234095C45.2229 -0.186542 41.6239 1.02187 38.8195 3.40154C36.015 5.78121 34.2171 9.15235 33.7935 12.8256H40.565C40.7536 12.3622 41.0957 11.9793 41.5328 11.7422C41.9701 11.5051 42.4752 11.4285 42.9621 11.5256C43.449 11.6226 43.8874 11.8871 44.2026 12.2742C44.5177 12.6611 44.69 13.1466 44.69 13.6476C44.69 14.1485 44.5177 14.6339 44.2026 15.0209C43.8874 15.4079 43.449 15.6725 42.9621 15.7695C42.4752 15.8665 41.9701 15.79 41.5328 15.5529C41.0957 15.3157 40.7536 14.9328 40.565 14.4695H16.0719C15.6399 14.4695 15.2257 14.6426 14.9203 14.951C14.6149 15.2592 14.4433 15.6774 14.4433 16.1133C14.4433 16.3292 14.4855 16.543 14.5672 16.7424C14.6491 16.9419 14.769 17.123 14.9203 17.2757C15.0715 17.4283 15.251 17.5494 15.4486 17.6321C15.6462 17.7147 15.858 17.7572 16.0719 17.7572H24.6434C22.9325 19.3598 21.7129 21.4242 21.1291 23.7054H32.5721C32.7607 23.2419 33.1028 22.859 33.5399 22.6219C33.9771 22.3849 34.4823 22.3082 34.9692 22.4053C35.4561 22.5023 35.8945 22.7668 36.2096 23.1539C36.5248 23.5409 36.6971 24.0263 36.6971 24.5273C36.6971 25.0282 36.5248 25.5136 36.2096 25.9007C35.8945 26.2876 35.4561 26.5523 34.9692 26.6493C34.4823 26.7463 33.9771 26.6697 33.5399 26.4326C33.1028 26.1955 32.7607 25.8125 32.5721 25.3492H17.3684C17.1499 25.3491 16.9336 25.3933 16.7325 25.4793C16.5313 25.5653 16.3493 25.6912 16.1973 25.8496C16.0454 26.0081 15.9266 26.1957 15.848 26.4014C15.7694 26.6072 15.7325 26.8267 15.7398 27.0471C15.7426 27.4822 15.9151 27.8987 16.2198 28.2064C16.5247 28.5141 16.9373 28.6882 17.3684 28.691H20.7969C21.1125 30.6718 21.8992 32.5459 23.0898 34.1525H45.515C45.6618 33.7345 45.9379 33.3752 46.3026 33.1278C46.6673 32.8804 47.1012 32.7581 47.54 32.779C48.1169 32.779 48.6701 33.0103 49.078 33.4221C49.4859 33.8338 49.7151 34.3921 49.7151 34.9744C49.7151 35.5567 49.4859 36.1151 49.078 36.5268C48.6701 36.9385 48.1169 37.1698 47.54 37.1698C47.0895 37.1825 46.6473 37.0453 46.2814 36.7796C45.9155 36.5139 45.6463 36.1342 45.515 35.699H15.5791C15.3602 35.6975 15.1431 35.7403 14.9409 35.8248C14.7386 35.9094 14.5552 36.0339 14.4014 36.1912C14.2476 36.3484 14.1265 36.5352 14.0454 36.7404C13.9643 36.9456 13.9247 37.1652 13.929 37.3861C13.9318 37.8212 14.1043 38.2377 14.4091 38.5454C14.714 38.853 15.1266 39.0272 15.5576 39.03H62.433Z" fill="#0B0E18"/>
<path d="M100.234 13.2035V8.87756H82.791V13.2035H89.2197V30.1395H93.8483V13.2035H100.234ZM119.809 30.1395V25.965H108.388V21.5201H118.309V17.3672H108.388V13.0413H119.659V8.89919H103.781V30.1395H119.809ZM144.988 30.1395V8.89919H139.995L134.456 17.8755L128.927 8.89919H123.934V30.1395H128.477V16.3614L134.338 25.3486H134.456L140.36 16.2317V30.1395H144.988ZM166.695 16.2965V16.2317C166.695 11.9057 163.663 8.88838 158.638 8.88838H150.067V30.1395H154.706V23.802H158.22C162.945 23.802 166.727 21.2497 166.727 16.329L166.695 16.2965ZM162.013 16.3939C162.013 18.2108 160.653 19.6383 158.338 19.6383H154.674V13.1494H158.253C160.567 13.1494 162.013 14.2309 162.013 16.3939ZM186.164 30.1395V25.965H174.731V21.5201H184.653V17.3672H174.731V13.0413H186.003V8.89919H170.124V30.1395H186.164ZM205.45 23.8561V23.802C205.45 20.0926 203.049 18.546 198.774 17.4213C195.142 16.4804 194.232 16.0262 194.232 14.6311V14.5662C194.232 13.4847 195.164 12.7168 196.942 12.7168C198.965 12.8228 200.906 13.5554 202.503 14.8149L204.903 11.2893C202.691 9.49608 199.929 8.53968 197.092 8.58556C192.806 8.58556 189.721 11.1379 189.721 14.9988V15.0528C189.721 19.2814 192.453 20.4603 196.695 21.5417C200.221 22.4502 200.981 23.0558 200.981 24.2454C200.981 25.5 199.835 26.257 197.939 26.257C195.605 26.191 193.374 25.2726 191.66 23.6723L188.832 27.0465C191.294 29.2499 194.476 30.459 197.767 30.4423C202.31 30.4423 205.492 28.0847 205.492 23.8561H205.45ZM225.003 13.2035V8.87756H207.571V13.2035H213.999V30.1395H218.575V13.2035H225.003Z" fill="#0B0E18"/>
</svg>
