<svg width="400" height="208" viewBox="0 0 400 208" fill="none" xmlns="http://www.w3.org/2000/svg">
<path fill-rule="evenodd" clip-rule="evenodd" d="M36.3321 190C38.6263 190.015 40.822 190.956 42.4444 192.619C44.0668 194.282 44.9851 196.532 45.0001 198.884C44.985 201.234 44.0667 203.485 42.4444 205.147C40.822 206.81 38.6263 207.751 36.3321 207.766V208H8.67194C6.37291 208 4.16774 207.064 2.54206 205.398C0.916465 203.732 0.00301937 201.473 0.00299573 199.117C-0.0274736 197.931 0.174767 196.75 0.596746 195.645C1.01872 194.541 1.65206 193.533 2.46003 192.683C3.26797 191.834 4.23409 191.159 5.30085 190.698C6.36773 190.237 7.51413 189.999 8.67194 190H36.3321ZM206.626 18.1277C221.569 5.44588 240.746 -0.994127 260.236 0.124754C279.726 1.24371 298.056 9.83705 311.479 24.1472C324.9 38.4574 332.401 57.4032 332.446 77.1111H337.07C353.93 77.616 369.932 84.7329 381.681 96.9509C393.429 109.169 400 125.527 400 142.555C400 159.583 393.429 175.942 381.681 188.16C369.932 200.378 353.93 207.494 337.07 208H82.6798C80.3828 207.985 78.1841 207.057 76.5596 205.418C74.9358 203.778 74.017 201.558 74.002 199.239C73.979 198.062 74.19 196.891 74.6221 195.798C75.0542 194.705 75.6995 193.71 76.5186 192.872C77.3381 192.034 78.316 191.369 79.3936 190.919C80.4712 190.469 81.6278 190.241 82.794 190.249H242.302C243.001 192.568 244.436 194.592 246.386 196.008C248.335 197.423 250.691 198.154 253.092 198.087C256.165 198.087 259.113 196.854 261.286 194.66C263.46 192.466 264.682 189.49 264.682 186.386C264.682 183.284 263.46 180.308 261.286 178.114C259.113 175.92 256.165 174.687 253.092 174.687C250.753 174.576 248.441 175.228 246.498 176.546C244.555 177.864 243.084 179.779 242.302 182.007H122.814C116.47 173.445 112.277 163.457 110.596 152.901H92.3282C90.0313 152.886 87.8325 151.958 86.2081 150.318C84.5843 148.678 83.6654 146.459 83.6505 144.14C83.6119 142.966 83.8077 141.796 84.2266 140.699C84.6456 139.603 85.2784 138.603 86.088 137.759C86.8976 136.914 87.8677 136.243 88.9395 135.785C90.0113 135.327 91.1642 135.091 92.3282 135.092H173.338C174.343 137.561 176.166 139.602 178.495 140.866C180.825 142.129 183.516 142.537 186.11 142.02C188.705 141.503 191.041 140.093 192.72 138.031C194.399 135.968 195.317 133.381 195.317 130.712C195.317 128.042 194.399 125.454 192.72 123.392C191.041 121.33 188.705 119.92 186.11 119.403C183.516 118.886 180.825 119.294 178.495 120.557C176.166 121.821 174.343 123.862 173.338 126.332H112.366C115.477 114.175 121.976 103.173 131.092 94.6326H85.42C84.2802 94.6326 83.1515 94.4059 82.0987 93.9656C81.046 93.5253 80.0898 92.8793 79.2842 92.0662C78.4781 91.2524 77.8386 90.2871 77.4024 89.2244C76.9668 88.1616 76.7423 87.0222 76.7423 85.8718C76.7423 83.5486 77.6569 81.3201 79.2842 79.6775C80.9116 78.0343 83.1185 77.1111 85.42 77.1111H215.927C216.932 79.5801 218.754 81.6216 221.083 82.8855C223.413 84.1488 226.105 84.5568 228.699 84.0398C231.293 83.5228 233.63 82.1125 235.309 80.0505C236.988 77.9878 237.906 75.4008 237.906 72.7312C237.906 70.0616 236.988 67.474 235.309 65.4119C233.63 63.3492 231.293 61.9396 228.699 61.4226C226.105 60.905 223.413 61.3136 221.083 62.5769C218.754 63.8402 216.932 65.881 215.927 68.3503H179.846C182.103 48.7748 191.683 30.8094 206.626 18.1277ZM56.334 135C58.6277 135.015 60.8231 135.969 62.4454 137.653C64.0672 139.338 64.9851 141.618 65.0001 144C64.9851 146.382 64.0672 148.662 62.4454 150.346C60.823 152.031 58.6277 152.984 56.334 153L52.9132 152.704H47.6671C45.4213 152.69 43.2668 151.778 41.6524 150.157C40.0381 148.536 39.0881 146.33 39.0001 144C39.0001 141.613 39.9139 139.324 41.5391 137.636C43.1645 135.948 45.3685 135 47.6671 135H56.334Z" fill="white"/>
<path fill-rule="evenodd" clip-rule="evenodd" d="M36.3321 190C38.6263 190.015 40.822 190.956 42.4444 192.619C44.0668 194.282 44.9851 196.532 45.0001 198.884C44.985 201.234 44.0667 203.485 42.4444 205.147C40.822 206.81 38.6263 207.751 36.3321 207.766V208H8.67194C6.37291 208 4.16774 207.064 2.54206 205.398C0.916465 203.732 0.00301937 201.473 0.00299573 199.117C-0.0274736 197.931 0.174767 196.75 0.596746 195.645C1.01872 194.541 1.65206 193.533 2.46003 192.683C3.26797 191.834 4.23409 191.159 5.30085 190.698C6.36773 190.237 7.51413 189.999 8.67194 190H36.3321ZM206.626 18.1277C221.569 5.44588 240.746 -0.994127 260.236 0.124754C279.726 1.24371 298.056 9.83705 311.479 24.1472C324.9 38.4574 332.401 57.4032 332.446 77.1111H337.07C353.93 77.616 369.932 84.7329 381.681 96.9509C393.429 109.169 400 125.527 400 142.555C400 159.583 393.429 175.942 381.681 188.16C369.932 200.378 353.93 207.494 337.07 208H82.6798C80.3828 207.985 78.1841 207.057 76.5596 205.418C74.9358 203.778 74.017 201.558 74.002 199.239C73.979 198.062 74.19 196.891 74.6221 195.798C75.0542 194.705 75.6995 193.71 76.5186 192.872C77.3381 192.034 78.316 191.369 79.3936 190.919C80.4712 190.469 81.6278 190.241 82.794 190.249H242.302C243.001 192.568 244.436 194.592 246.386 196.008C248.335 197.423 250.691 198.154 253.092 198.087C256.165 198.087 259.113 196.854 261.286 194.66C263.46 192.466 264.682 189.49 264.682 186.386C264.682 183.284 263.46 180.308 261.286 178.114C259.113 175.92 256.165 174.687 253.092 174.687C250.753 174.576 248.441 175.228 246.498 176.546C244.555 177.864 243.084 179.779 242.302 182.007H122.814C116.47 173.445 112.277 163.457 110.596 152.901H92.3282C90.0313 152.886 87.8325 151.958 86.2081 150.318C84.5843 148.678 83.6654 146.459 83.6505 144.14C83.6119 142.966 83.8077 141.796 84.2266 140.699C84.6456 139.603 85.2784 138.603 86.088 137.759C86.8976 136.914 87.8677 136.243 88.9395 135.785C90.0113 135.327 91.1642 135.091 92.3282 135.092H173.338C174.343 137.561 176.166 139.602 178.495 140.866C180.825 142.129 183.516 142.537 186.11 142.02C188.705 141.503 191.041 140.093 192.72 138.031C194.399 135.968 195.317 133.381 195.317 130.712C195.317 128.042 194.399 125.454 192.72 123.392C191.041 121.33 188.705 119.92 186.11 119.403C183.516 118.886 180.825 119.294 178.495 120.557C176.166 121.821 174.343 123.862 173.338 126.332H112.366C115.477 114.175 121.976 103.173 131.092 94.6326H85.42C84.2802 94.6326 83.1515 94.4059 82.0987 93.9656C81.046 93.5253 80.0898 92.8793 79.2842 92.0662C78.4781 91.2524 77.8386 90.2871 77.4024 89.2244C76.9668 88.1616 76.7423 87.0222 76.7423 85.8718C76.7423 83.5486 77.6569 81.3201 79.2842 79.6775C80.9116 78.0343 83.1185 77.1111 85.42 77.1111H215.927C216.932 79.5801 218.754 81.6216 221.083 82.8855C223.413 84.1488 226.105 84.5568 228.699 84.0398C231.293 83.5228 233.63 82.1125 235.309 80.0505C236.988 77.9878 237.906 75.4008 237.906 72.7312C237.906 70.0616 236.988 67.474 235.309 65.4119C233.63 63.3492 231.293 61.9396 228.699 61.4226C226.105 60.905 223.413 61.3136 221.083 62.5769C218.754 63.8402 216.932 65.881 215.927 68.3503H179.846C182.103 48.7748 191.683 30.8094 206.626 18.1277ZM56.334 135C58.6277 135.015 60.8231 135.969 62.4454 137.653C64.0672 139.338 64.9851 141.618 65.0001 144C64.9851 146.382 64.0672 148.662 62.4454 150.346C60.823 152.031 58.6277 152.984 56.334 153L52.9132 152.704H47.6671C45.4213 152.69 43.2668 151.778 41.6524 150.157C40.0381 148.536 39.0881 146.33 39.0001 144C39.0001 141.613 39.9139 139.324 41.5391 137.636C43.1645 135.948 45.3685 135 47.6671 135H56.334Z" fill="url(#paint0_linear_420_1983)" fill-opacity="0.8"/>
<defs>
<linearGradient id="paint0_linear_420_1983" x1="249.987" y1="1.48083e-09" x2="249.996" y2="168.439" gradientUnits="userSpaceOnUse">
<stop offset="0.00480769" stop-opacity="0"/>
<stop offset="1" stop-color="#0B0E18"/>
</linearGradient>
</defs>
</svg>
