<svg width="335" height="400" viewBox="0 0 335 400" fill="none" xmlns="http://www.w3.org/2000/svg">
<path fill-rule="evenodd" clip-rule="evenodd" d="M322.161 137.65C324.708 136.187 327.822 136.187 330.352 137.65C332.881 139.112 334.446 141.814 334.446 144.739V300.012C334.446 302.937 332.881 305.639 330.352 307.102L171.327 398.899C170.054 399.638 168.642 400 167.231 400C165.821 400 164.41 399.638 163.137 398.899L4.1123 307.102C1.58292 305.639 0.0175781 302.937 0.0175781 300.012V144.739C0.0175781 141.814 1.58292 139.112 4.1123 137.65C6.65885 136.187 9.7734 136.187 12.3027 137.65L167.231 227.09L322.161 137.65ZM171.327 316.72C168.781 318.182 165.666 318.182 163.137 316.72L16.3809 232.011V295.28L167.231 382.346L318.083 295.28V232.011L171.327 316.72ZM171.327 243.626C168.781 245.089 165.666 245.089 163.137 243.626L16.3809 158.917V213.101L167.231 300.167L318.083 213.101V158.917L171.327 243.626ZM163.119 1.09685C165.648 -0.365669 168.78 -0.365563 171.31 1.09685L268.545 57.2424L268.562 57.2599L330.352 92.9289C332.881 94.3915 334.446 97.0936 334.429 100.019C334.429 102.944 332.863 105.645 330.334 107.108L171.31 198.905C170.036 199.645 168.626 200.006 167.215 200.006C165.804 200.006 164.392 199.628 163.119 198.905L4.09473 107.108C1.56563 105.645 9.60315e-05 102.944 0 100.019C0 97.0937 1.56544 94.3915 4.09473 92.9289L65.8848 57.2424L163.119 1.09685ZM171.327 127.515C170.054 128.255 168.642 128.616 167.231 128.616C165.821 128.616 164.41 128.255 163.137 127.515L69.9971 73.7785L24.5713 100.019L167.231 182.353L309.893 100.019L264.467 73.7785L171.327 127.515ZM86.3779 64.3312L167.231 110.996L248.086 64.3312L167.231 17.633L86.3779 64.3312Z" fill="white"/>
<path fill-rule="evenodd" clip-rule="evenodd" d="M322.161 137.65C324.708 136.187 327.822 136.187 330.352 137.65C332.881 139.112 334.446 141.814 334.446 144.739V300.012C334.446 302.937 332.881 305.639 330.352 307.102L171.327 398.899C170.054 399.638 168.642 400 167.231 400C165.821 400 164.41 399.638 163.137 398.899L4.1123 307.102C1.58292 305.639 0.0175781 302.937 0.0175781 300.012V144.739C0.0175781 141.814 1.58292 139.112 4.1123 137.65C6.65885 136.187 9.7734 136.187 12.3027 137.65L167.231 227.09L322.161 137.65ZM171.327 316.72C168.781 318.182 165.666 318.182 163.137 316.72L16.3809 232.011V295.28L167.231 382.346L318.083 295.28V232.011L171.327 316.72ZM171.327 243.626C168.781 245.089 165.666 245.089 163.137 243.626L16.3809 158.917V213.101L167.231 300.167L318.083 213.101V158.917L171.327 243.626ZM163.119 1.09685C165.648 -0.365669 168.78 -0.365563 171.31 1.09685L268.545 57.2424L268.562 57.2599L330.352 92.9289C332.881 94.3915 334.446 97.0936 334.429 100.019C334.429 102.944 332.863 105.645 330.334 107.108L171.31 198.905C170.036 199.645 168.626 200.006 167.215 200.006C165.804 200.006 164.392 199.628 163.119 198.905L4.09473 107.108C1.56563 105.645 9.60315e-05 102.944 0 100.019C0 97.0937 1.56544 94.3915 4.09473 92.9289L65.8848 57.2424L163.119 1.09685ZM171.327 127.515C170.054 128.255 168.642 128.616 167.231 128.616C165.821 128.616 164.41 128.255 163.137 127.515L69.9971 73.7785L24.5713 100.019L167.231 182.353L309.893 100.019L264.467 73.7785L171.327 127.515ZM86.3779 64.3312L167.231 110.996L248.086 64.3312L167.231 17.633L86.3779 64.3312Z" fill="url(#paint0_linear_420_1690)" fill-opacity="0.94"/>
<defs>
<linearGradient id="paint0_linear_420_1690" x1="167.215" y1="0" x2="167.215" y2="200.006" gradientUnits="userSpaceOnUse">
<stop stop-opacity="0"/>
<stop offset="1" stop-color="#0B0E18"/>
</linearGradient>
</defs>
</svg>
